<svg id="Capa_1" xmlns="http://www.w3.org/2000/svg" viewBox="0 0 16.841 20">
    <defs>
        <style>.cls-1{fill:#494949;}</style>
    </defs>
    <title>clap</title>
    <path class="cls-1"
          d="M15.5742,2.4015h-.002a1.27,1.27,0,0,0-1.2687,1.2667l-.0029,1.8433L9.1392.35A1.1965,1.1965,0,0,0,7.1283.92L7.0362.8279a1.1972,1.1972,0,0,0-1.693,1.6932l.2849.2849A1.1975,1.1975,0,0,0,5.059,4.8174l.5865.5864a1.1967,1.1967,0,0,0-.5706,2.0108l.39.39a1.1967,1.1967,0,0,0-.0278.2557v.8289A1.1964,1.1964,0,0,0,3.6119,9.9077v6.2158a6.0059,6.0059,0,0,0,1.3367,3.7711.2848.2848,0,0,0,.4424-.3587,5.4347,5.4347,0,0,1-1.21-3.4124V9.9077a.6277.6277,0,1,1,1.2553,0v3.9935a.2848.2848,0,0,0,.57,0V8.06a.6277.6277,0,1,1,1.2553,0v5.4594a.2848.2848,0,0,0,.57,0V6.6371a.6277.6277,0,0,1,1.2554,0v7.1792a.2848.2848,0,1,0,.57,0v-6.03a.6277.6277,0,1,1,1.2553,0s.0006,8.0066.0019,8.0173a.2847.2847,0,0,0,.4839.17l1.7912-1.7856a.6993.6993,0,0,1,.9877.99L9.9024,19.4432a.2847.2847,0,0,0,.4023.403l4.2736-4.2655a1.2687,1.2687,0,0,0-1.792-1.7965l-1.3054,1.3013V13.1349a5.97,5.97,0,0,0,1.2764.3532.2807.2807,0,0,0,.0454.0037.2848.2848,0,0,0,.0447-.566,5.3971,5.3971,0,0,1-1.3665-.41v-4.73A1.1986,1.1986,0,0,0,10.2837,6.589c-.0219,0-.0437.0007-.0653.0019L5.7458,2.1185a.6277.6277,0,0,1,.8877-.8878L11.71,6.3072a.2848.2848,0,1,0,.4027-.4027l-4.264-4.264A.6277.6277,0,0,1,8.7365.7528L14.1177,6.134a3.6267,3.6267,0,0,0-1.7888,4.564.2848.2848,0,0,0,.5313-.2051,3.0378,3.0378,0,0,1,.0568-2.34,2.9876,2.9876,0,0,1,1.6948-1.6144.3289.3289,0,0,0,.2572-.34l.004-2.5292a.6991.6991,0,0,1,.6992-.6981h.0011a.7.7,0,0,1,.6982.7l-.0057,6.038a.2847.2847,0,0,0,.2845.285h0a.2847.2847,0,0,0,.2848-.2845l.0057-6.038A1.27,1.27,0,0,0,15.5742,2.4015Zm-8.94,4.4613a1.1943,1.1943,0,0,0-.8984.4071L5.4776,7.012a.6278.6278,0,0,1,.8878-.8878l.0023.0019.8939.8939v.0211A1.19,1.19,0,0,0,6.6339,6.8628Zm.6849-.591L5.4617,4.4147a.6276.6276,0,0,1,.8809-.8941L8.2759,5.4539A1.2005,1.2005,0,0,0,7.3188,6.2718Z"/>
    <path class="cls-1"
          d="M2.747,6.73a.2848.2848,0,0,0,.0516-.5648L.3366,5.7092a.2848.2848,0,0,0-.1036.56l2.4619.4559A.2894.2894,0,0,0,2.747,6.73Z"/>
    <path class="cls-1"
          d="M3.88,5.1142a.2849.2849,0,0,0,.0734-.396L2.5353,2.655a.2847.2847,0,0,0-.4693.3226L3.4845,5.0409a.2847.2847,0,0,0,.3959.0733Z"/>
    <path class="cls-1"
          d="M3.0048,8.0051.9416,9.4236a.2847.2847,0,1,0,.3226.4693L3.3275,8.4744a.2848.2848,0,0,0-.3227-.4693Z"/>
</svg>