<svg version="1.1" id="" xmlns="http://www.w3.org/2000/svg" x="0px" y="0px"
     viewBox="0 0 86.52 37.59" style="enable-background:new 0 0 86.52 37.59;" xml:space="preserve">

	<defs>
		<style type="text/css">
            .st0{fill:#fff;stroke:#000000;stroke-miterlimit:10;}
	        .st1{fill:none;stroke:#191919;stroke-width:2;stroke-miterlimit:10;}

			.st0 {
				stroke-dasharray: 800;
				stroke-dashoffset: 0;
				-webkit-animation: dash 4s linear forwards;
				-o-animation: dash 4s linear forwards;
				-moz-animation: dash 10s linear forwards;
				animation: dash 4s linear forwards;
			}
			@-webkit-keyframes dash {
				from {
					stroke-dashoffset: 800;
				}
				to {
					stroke-dashoffset: 0;
				}
			}
			.st1 {
				stroke-dasharray: 800;
				stroke-dashoffset: 0;
				-webkit-animation: dash 4s linear forwards;
				-o-animation: dash 4s linear forwards;
				-moz-animation: dash 4s linear forwards;
				animation: dash 4s linear forwards;
			}
			@-webkit-keyframes dash {
				from {
					stroke-dashoffset: 800;
				}
				to {
					stroke-dashoffset: 0;
				}
			}

		</style>
	</defs>

    <path class="st0" d="M54.59,22.78c-0.6-0.59-1.33-0.88-2.17-0.88c-0.98,0-1.7,0.29-2.14,0.87c-0.44,0.58-0.82,1.33-1.12,2.25
	c-0.71,1.95-1.77,3.43-3.18,4.44c-1.4,1.01-3.12,1.51-5.15,1.51c-1.87,0-3.51-0.44-4.9-1.33c-1.4-0.89-2.48-2.23-3.24-4.03
	c-0.76-1.8-1.14-4.06-1.14-6.77c0-4.06,0.86-7.2,2.58-9.4c1.72-2.21,4.03-3.31,6.94-3.31c1.82,0,3.36,0.43,4.61,1.29
	c1.25,0.86,2.33,2.15,3.25,3.88c0.56,1.05,1.06,1.79,1.51,2.21c0.45,0.43,1.13,0.64,2.04,0.64c0.81,0,1.5-0.31,2.07-0.93
	c0.57-0.62,0.86-1.33,0.86-2.14c0-1.48-0.59-3.04-1.76-4.7c-1.17-1.66-2.86-3.05-5.07-4.18c-2.21-1.13-4.72-1.69-7.55-1.69
	c-2.32,0-4.5,0.41-6.55,1.24c-2.05,0.83-3.83,2.03-5.36,3.61c-0.59,0.61-1.11,1.28-1.59,1.99c-0.74-1.15-1.61-2.19-2.65-3.07
	c-1.4-1.22-2.95-2.05-4.67-2.5c-1.71-0.44-3.77-0.67-6.17-0.67H4.83c-1.52,0-2.63,0.34-3.31,1.02C0.84,2.8,0.5,3.9,0.5,5.43v25.59
	c0,1.13,0.1,2.04,0.3,2.75c0.2,0.71,0.62,1.25,1.27,1.64c0.65,0.39,1.62,0.58,2.9,0.58h9.21c1.6,0,3.04-0.1,4.32-0.31
	c1.28-0.21,2.47-0.56,3.58-1.07c1.11-0.51,2.13-1.18,3.07-2.02c0.89-0.82,1.67-1.73,2.32-2.71c0.37,0.58,0.77,1.13,1.21,1.64
	c1.03,1.21,2.16,2.18,3.39,2.92c1.23,0.74,2.6,1.28,4.11,1.63c1.51,0.35,3.18,0.52,5.02,0.52c2.43,0,4.55-0.39,6.38-1.17
	c1.82-0.78,3.32-1.79,4.5-3.03c1.17-1.25,2.04-2.52,2.58-3.81c0.55-1.29,0.82-2.5,0.82-3.61C55.49,24.1,55.19,23.37,54.59,22.78z
	 M19.61,28.73c-0.52,0.46-1.14,0.82-1.86,1.07c-0.71,0.25-1.4,0.41-2.07,0.48c-0.67,0.06-1.59,0.1-2.76,0.1H7.57V6.69h4.67
	c2.16,0,4,0.23,5.52,0.7c1.52,0.47,2.8,1.56,3.84,3.27c1.04,1.71,1.56,4.29,1.56,7.74C23.16,23.29,21.98,26.73,19.61,28.73z"/>
    <g>
	<path class="st1" d="M81.91,6.93h-7.71v25.35c0,1.46-0.33,2.54-0.98,3.25c-0.65,0.71-1.49,1.06-2.52,1.06
		c-1.05,0-1.9-0.36-2.56-1.07c-0.66-0.71-0.99-1.79-0.99-3.24V6.93h-7.71c-1.21,0-2.1-0.27-2.69-0.8c-0.59-0.53-0.88-1.23-0.88-2.11
		c0-0.9,0.31-1.62,0.92-2.14c0.61-0.52,1.5-0.79,2.65-0.79h22.47c1.22,0,2.13,0.27,2.73,0.81c0.59,0.54,0.89,1.25,0.89,2.12
		c0,0.87-0.3,1.58-0.9,2.11C84.02,6.66,83.11,6.93,81.91,6.93z"/>
</g>
</svg>
