<svg version="1.1" id="Layer_1" xmlns="http://www.w3.org/2000/svg" x="0px" y="0px"
     viewBox="0 0 27.5 29.31" style="enable-background:new 0 0 27.5 29.31;" xml:space="preserve">

	<defs>
		<style type="text/css">
            .newwrite20{fill:#fff;stroke:#000;stroke-width:0.5;stroke-miterlimit:10;}
			.newwrite21{fill:#fff;stroke:#000;stroke-width:0.5;stroke-miterlimit:10;}
			.newwrite22{fill:#fff;stroke:#000;stroke-width:0.5;stroke-miterlimit:10;}

			.newwrite20 {
				fill-dasharray: 800;
				stroke-dasharray: 800;
				stroke-dashoffset: 0;
				-webkit-animation: dash 10s linear forwards;
				-o-animation: dash 10s linear forwards;
				-moz-animation: dash 10s linear forwards;
				animation: dash 10s linear forwards;
			}
			@-webkit-keyframes dash {
				from {
					stroke-dashoffset: 800;
				}
				to {
					stroke-dashoffset: 0;
				}
			}
			.newwrite21 {
				stroke-dasharray: 800;
				stroke-dashoffset: 0;
				-webkit-animation: dash 10s linear forwards;
				-o-animation: dash 10s linear forwards;
				-moz-animation: dash 10s linear forwards;
				animation: dash 10s linear forwards;
			}
			@-webkit-keyframes dash {
				from {
					stroke-dashoffset: 800;
				}
				to {
					stroke-dashoffset: 0;
				}
			}
			.newwrite22 {
				stroke-dasharray: 800;
				stroke-dashoffset: 0;
				-webkit-animation: dash 10s linear forwards;
				-o-animation: dash 10s linear forwards;
				-moz-animation: dash 10s linear forwards;
				animation: dash 10s linear forwards;
			}
			@-webkit-keyframes dash {
				from {
					stroke-dashoffset: 800;
				}
				to {
					stroke-dashoffset: 0;
				}
			}

		</style>
	</defs>

    <g>
	<path class="newwrite20"
          d="M12.02,9.68l1.21-0.17c0,0,0,0,0.01,0c0.32-0.48,0.75-1.05,1.25-1.66l-2.49-1.92L12.02,9.68z"/>
        <path class="newwrite21" d="M19.92,6.23c-0.36,0-0.73-0.09-1.08-0.17c-0.28-0.06-0.57-0.13-0.76-0.13c-0.03,0-0.05,0-0.07,0
		c-1.71,1.77-3.23,3.6-3.87,4.66c-0.82,1.37-1.06,2.98-0.67,4.53c0.31,1.25,1.01,2.35,1.98,3.15l2.39-3.98l-2.06-1.4
		c-0.31-0.21-0.39-0.62-0.18-0.93c0.21-0.31,0.62-0.39,0.93-0.18l2,1.36l5.64-9.41c0.19-0.32,0.6-0.42,0.92-0.23
		c0.32,0.19,0.42,0.6,0.23,0.92l-1.83,3.05l1.54,1.08c0.3,0.21,0.38,0.63,0.16,0.93c-0.13,0.19-0.34,0.29-0.55,0.29
		c-0.13,0-0.27-0.04-0.38-0.12L22.8,8.62L16.57,19c0.83,0.42,1.75,0.64,2.69,0.64c2.07,0,3.95-1.03,5.05-2.77
		c-0.08-0.24-0.34-0.73-0.52-1.07c-0.58-1.08-1.18-2.2-0.84-3.02c0.33-0.8,1.3-0.85,2.24-0.91c0.38-0.02,1.17-0.07,1.33-0.22
		c1.29-3.86,1-9.61,0.85-11.65c-1.32,0.35-4.16,1.24-6.16,2.92c-0.03,0.2,0.01,0.66,0.03,0.96c0.07,0.85,0.13,1.58-0.33,2
		C20.66,6.11,20.32,6.23,19.92,6.23z"/>
        <path class="newwrite22" d="M11.35,11.12c-0.16,0-0.32-0.06-0.44-0.16c-0.15-0.13-0.23-0.31-0.23-0.5l-0.02-5.22H0v24.07h17.01v-8.68
		c-0.39-0.13-0.77-0.28-1.13-0.47l-3.63,6.06c-0.13,0.21-0.35,0.33-0.58,0.33c-0.12,0-0.24-0.03-0.34-0.1
		c-0.32-0.19-0.42-0.6-0.23-0.92l3.65-6.09c-1.28-1-2.19-2.39-2.59-3.99c-0.18-0.72-0.25-1.45-0.21-2.17
		c-0.1,0.25-0.34,0.43-0.63,0.43H2.86c-0.37,0-0.67-0.3-0.67-0.67s0.3-0.67,0.67-0.67h8.47c0.32,0,0.59,0.23,0.66,0.53
		c0.07-0.66,0.23-1.3,0.47-1.92l-1.01,0.14C11.42,11.12,11.38,11.12,11.35,11.12z M10.02,23.84c-1.28,0-1.48,0.55-1.55,0.73
		c-0.34,0.9-0.94,1.23-1.38,1.36C6.9,25.98,6.71,26,6.52,26c-1.38,0-2.83-1.14-3.01-1.29c-0.29-0.23-0.33-0.65-0.1-0.94
		c0.23-0.29,0.65-0.33,0.94-0.1c0.49,0.39,1.72,1.15,2.39,0.96c0.13-0.04,0.33-0.13,0.48-0.53c0.27-0.73,0.98-1.59,2.81-1.59
		c0.37,0,0.67,0.3,0.67,0.67C10.69,23.54,10.39,23.84,10.02,23.84z M10.98,19.35H2.86c-0.37,0-0.67-0.3-0.67-0.67
		s0.3-0.67,0.67-0.67h8.12c0.37,0,0.67,0.3,0.67,0.67S11.35,19.35,10.98,19.35z M2.86,15.19h8.47c0.37,0,0.67,0.3,0.67,0.67
		c0,0.37-0.3,0.67-0.67,0.67H2.86c-0.37,0-0.67-0.3-0.67-0.67C2.19,15.49,2.49,15.19,2.86,15.19z"/>
</g>
</svg>
