<svg id="Capa_1" xmlns="http://www.w3.org/2000/svg" viewBox="0 0 13.5823 8.2094">
    <defs>
        <style>.cls-1{fill:#494949;}</style>
    </defs>
    <title>view</title>
    <g id="layer_copy">
        <path class="cls-1"
              d="M6.7951,8.2094a7.1482,7.1482,0,0,1-3.6042-.9963A9.98,9.98,0,0,1,.0551,4.2584a.2471.2471,0,0,1-.01-.2977A9.9828,9.9828,0,0,1,3.188.9962,7.1531,7.1531,0,0,1,6.7934,0h.0027A7.1482,7.1482,0,0,1,10.4.9977a9.9682,9.9682,0,0,1,3.1371,2.9631.2472.2472,0,0,1,.0449.1419v.0039a.2467.2467,0,0,1-.0449.1419,9.9687,9.9687,0,0,1-3.1366,2.9631,7.1451,7.1451,0,0,1-3.603.9978ZM.5506,4.1024A7.8122,7.8122,0,0,0,6.7951,7.7156h.0026a7.8011,7.8011,0,0,0,6.2359-3.6109A7.8021,7.8021,0,0,0,6.796.4938H6.7934A7.8105,7.8105,0,0,0,.5506,4.1024Z"/>
        <path class="cls-1"
              d="M6.7869,6.99A2.8856,2.8856,0,1,1,9.6725,4.1047,2.8889,2.8889,0,0,1,6.7869,6.99Zm0-5.2774A2.3918,2.3918,0,1,0,9.1787,4.1047,2.3945,2.3945,0,0,0,6.7869,1.7129Z"/>
        <path class="cls-1"
              d="M8.1294,4.3053a.2469.2469,0,0,1-.2469-.2469,1.0815,1.0815,0,0,0-1.08-1.08.2469.2469,0,0,1,0-.4938,1.5758,1.5758,0,0,1,1.574,1.574A.247.247,0,0,1,8.1294,4.3053Z"/>
    </g>
</svg>